#!OML:ASF X:\für Bonn\!DataBase\2005_08_10_Bjorn_Final\c3d\bjorn.ASF
:FULLY-SPECIFIED
:DEGREES
32
root 2.13778 18.9885 3.56745 -184.969 -4.9103 -186.566
lowerback 20.7684 5.40944 16.7057
upperback 15.5995 6.15921 1.3871
thorax 8.29992 3.25917 -8.57123
lowerneck -3.33089 10.4861 1.65434
upperneck 4.67553 14.8677 -21.355
head 3.7524 6.47278 -6.02505
rclavicle -3.02153e-014 -6.04305e-014
rhumerus -28.1523 -4.29966 -68.8956
rradius 48.7697
rwrist -8.1124
rhand -14.4729 13.2713
rfingers 7.12502
rthumb 11.6731 -16.3835
lclavicle -3.02153e-014 -6.04305e-014
lhumerus -34.5135 -9.04303 84.9931
lradius 76.2579
lwrist -26.3788
lhand -48.1556 -24.0402
lfingers 7.12502
lthumb -20.8179 4.86294
rfemur -11.7576 -8.86461 13.984
rtibia 36.7611
rfoot -15.7622 14.8558
rtoes -2.49307
lfemur -54.8883 -5.39045 -22.545
ltibia 102.066
lfoot -15.6782 0.59671
ltoes -12.0856
33
root 2.12884 18.996 3.58042 -185.436 -4.79372 -186.852
lowerback 21.5148 5.46873 16.85
upperback 15.7225 6.29049 1.45951
thorax 8.13683 3.29427 -8.63366
lowerneck -3.5464 10.441 1.76117
upperneck 4.78023 14.8433 -21.5203
head 3.84076 6.4311 -6.08258
rclavicle -1.11319e-014 5.725e-014
rhumerus -27.3328 -4.61918 -68.6256
rradius 48.4741
rwrist -7.74648
rhand -14.254 13.1019
rfingers 7.12502
rthumb 11.8842 -16.5409
lclavicle -1.11319e-014 5.725e-014
lhumerus -34.5423 -8.90866 84.4875
lradius 77.3509
lwrist -26.5732
lhand -48.3471 -23.8028
lfingers 7.12502
lthumb -21.0019 5.08002
rfemur -11.1515 -8.71593 13.5683
rtibia 36.532
rfoot -15.7578 14.8251
rtoes -3.27213
lfemur -56.736 -4.82225 -22.1973
ltibia 104.789
lfoot -15.7434 -0.592573
ltoes -12.3472
34
root 2.12033 19.0022 3.5923 -185.916 -4.63557 -187.144
lowerback 22.3027 5.53612 16.9786
upperback 15.8412 6.43633 1.53375
thorax 7.95221 3.33165 -8.69214
lowerneck -3.77041 10.4059 1.8967
upperneck 4.89944 14.8367 -21.7039
head 3.94099 6.39599 -6.14863
rclavicle 3.02153e-014 -1.78111e-013
rhumerus -26.4941 -5.03709 -68.3577
rradius 48.1781
rwrist -7.38188
rhand -13.9829 12.9067
rfingers 7.12502
rthumb 12.1456 -16.7208
lclavicle 3.02153e-014 -1.78111e-013
lhumerus -34.5606 -8.83017 83.9517
lradius 78.3958
lwrist -26.7565
lhand -48.6226 -23.6338
lfingers 7.12502
lthumb -21.2665 5.21949
rfemur -10.5506 -8.51254 13.1567
rtibia 36.3301
rfoot -15.7455 14.7657
rtoes -4.05847
lfemur -58.5934 -4.15308 -21.7693
ltibia 107.461
lfoot -15.9187 -1.7656
ltoes -13.4564
35
root 2.1107 19.0083 3.60415 -186.398 -4.43894 -187.48
lowerback 23.1055 5.61277 17.0687
upperback 15.9734 6.58477 1.59469
thorax 7.77647 3.36667 -8.74778
lowerneck -4.02617 10.3698 2.06814
upperneck 5.02074 14.8312 -21.9086
head 4.05235 6.35895 -6.22568
rclavicle 4.77083e-015 6.67916e-014
rhumerus -25.6456 -5.58643 -68.1177
rradius 47.9311
rwrist -7.07844
rhand -13.6724 12.7018
rfingers 7.12502
rthumb 12.4449 -16.9077
lclavicle 4.77083e-015 6.67916e-014
lhumerus -34.5488 -8.76411 83.3956
lradius 79.4222
lwrist -26.9798
lhand -48.9064 -23.4475
lfingers 7.12502
lthumb -21.5391 5.37484
rfemur -9.95467 -8.34137 12.6871
rtibia 36.1277
rfoot -15.7188 14.7793
rtoes -4.91398
lfemur -60.4466 -3.38402 -21.3045
ltibia 110.068
lfoot -16.2238 -2.80362
ltoes -15.4003
36
root 2.10055 19.0156 3.61432 -186.883 -4.1855 -187.851
lowerback 23.9776 5.69833 17.1387
upperback 16.3624 6.77605 1.45357
thorax 7.25679 3.39613 -8.63732
lowerneck -4.26125 10.3327 2.22381
upperneck 5.1605 14.8258 -22.1079
head 4.1642 6.32095 -6.30036
rclavicle -4.29375e-014 3.81667e-014
rhumerus -24.774 -6.23914 -67.8987
rradius 47.6896
rwrist -6.91669
rhand -13.4428 12.5532
rfingers 7.12502
rthumb 12.6663 -17.0428
lclavicle -4.29375e-014 3.81667e-014
lhumerus -34.5428 -8.73593 82.8423
lradius 80.426
lwrist -27.1982
lhand -49.2395 -23.3595
lfingers 7.12502
lthumb -21.859 5.42585
rfemur -9.34217 -8.119 12.1815
rtibia 35.882
rfoot -15.6439 14.7682
rtoes -5.77949
lfemur -62.2958 -2.48891 -20.7758
ltibia 112.632
lfoot -16.4828 -3.78665
ltoes -17.2569
37
root 2.08949 19.0288 3.62435 -187.361 -3.86864 -188.268
lowerback 24.8398 5.80728 17.1448
upperback 16.4767 6.96486 1.50009
thorax 7.04175 3.4376 -8.65064
lowerneck -4.45202 10.2966 2.37979
upperneck 5.27557 14.8156 -22.3574
head 4.26495 6.28143 -6.39485
rclavicle -2.22639e-014 9.85972e-014
rhumerus -23.911 -6.93065 -67.7105
rradius 47.5221
rwrist -6.93231
rhand -13.337 12.4215
rfingers 7.12502
rthumb 12.7684 -17.1681
lclavicle -2.22639e-014 9.85972e-014
lhumerus -34.5219 -8.7605 82.299
lradius 81.3971
lwrist -27.4464
lhand -49.623 -23.3459
lfingers 7.12502
lthumb -22.2273 5.39599
rfemur -8.7067 -7.8806 11.6289
rtibia 35.5577
rfoot -15.5368 14.7526
rtoes -6.82741
lfemur -64.1604 -1.44337 -20.1752
ltibia 115.159
lfoot -16.6957 -4.88468
ltoes -18.7625
38
root 2.079 19.0497 3.63443 -187.816 -3.52976 -188.745
lowerback 25.7053 5.92241 17.0484
upperback 16.5795 7.14408 1.5417
thorax 6.79613 3.46283 -8.62025
lowerneck -4.60055 10.2728 2.54421
upperneck 5.34325 14.8125 -22.6271
head 4.34763 6.25071 -6.49958
rclavicle 9.70069e-014 7.95139e-014
rhumerus -23.0532 -7.63466 -67.5486
rradius 47.4663
rwrist -7.026
rhand -13.1673 12.1872
rfingers 7.12502
rthumb 12.932 -17.3921
lclavicle 9.70069e-014 7.95139e-014
lhumerus -34.5043 -8.80714 81.7352
lradius 82.3613
lwrist -27.6732
lhand -50.0228 -23.3441
lfingers 7.12502
lthumb -22.611 5.35158
rfemur -8.06814 -7.60506 11.0196
rtibia 35.1523
rfoot -15.3268 14.7235
rtoes -7.68036
lfemur -66.0164 -0.276123 -19.5181
ltibia 117.625
lfoot -16.9686 -6.04693
ltoes -20.3577
